<svg width="895" height="449" viewBox="0 0 895 449" fill="none" xmlns="http://www.w3.org/2000/svg">
<g id="undraw_contact_us_re_4qqt 1" clip-path="url(#clip0_2_101)">
<path id="line_around" d="M294.494 448.282C267.511 448.282 240.568 447.799 213.665 446.833C175.225 445.452 135.475 444.025 98.5296 423.534C72.6846 409.201 49.7948 386.205 32.3355 357.03C20.6659 337.256 12.1093 315.803 6.96618 293.426C-2.62775 252.684 -2.30097 210.235 7.91905 169.646C11.5005 155.73 16.4379 142.199 22.6602 129.246C49.6031 73.4526 98.7451 36 157.486 26.4922C157.971 26.4292 158.462 26.4187 158.949 26.4609C159.213 26.4751 159.477 26.4902 159.745 26.479L160.091 26.3691C160.977 26.0612 161.887 25.8276 162.811 25.6709C253.405 12.1841 349.176 39.4726 439.764 104.584C509.806 154.936 602.631 182.049 723.545 187.474L725.262 187.563C758.921 189.497 791.48 203.374 819.422 227.696C847.001 251.702 867.709 283.73 879.306 320.32C880.731 324.781 882.038 329.425 883.19 334.121C884.262 338.486 884.187 343.053 882.97 347.38C881.754 351.707 879.438 355.645 876.249 358.811V358.82L875.948 359.13C875.223 359.851 874.46 360.542 873.681 361.185L872.764 361.941C865.036 368.307 858.933 373.335 851.629 377.24C846.757 379.827 841.576 381.783 836.21 383.061C806.745 390.245 776.823 396.905 747.274 402.858C689.89 414.429 630.993 423.974 572.22 431.227C480.081 442.588 387.331 448.284 294.494 448.282V448.282ZM158.262 28.437C158.082 28.4353 157.901 28.4475 157.723 28.4736C99.5309 37.8926 50.8541 74.9775 24.1783 130.219C18.0174 143.043 13.1289 156.44 9.58308 170.219C-0.543807 210.448 -0.866523 252.52 8.64207 292.899C13.7349 315.063 22.2085 336.31 33.7654 355.896C51.0538 384.784 73.7095 407.55 99.2836 421.731C135.898 442.039 175.46 443.46 213.72 444.833C333.382 449.109 453.196 443.894 572.035 429.238C630.769 421.989 689.628 412.451 746.975 400.888C776.503 394.939 806.405 388.284 835.85 381.104C841.087 379.858 846.143 377.95 850.898 375.426C858.055 371.6 864.1 366.619 871.753 360.314L872.67 359.56C873.34 359.006 873.998 358.414 874.628 357.799L874.808 357.609C881.098 351.271 883.543 342.907 881.518 334.665V334.664C880.379 330.018 879.086 325.424 877.675 321.009C853.985 246.263 792.701 193.439 725.178 189.561L723.471 189.472C668.239 186.993 619.907 180.128 575.72 168.481C522.97 154.579 476.918 133.651 438.844 106.281C348.602 41.4184 253.231 14.2314 163.033 27.6543C162.19 27.7996 161.361 28.0145 160.554 28.2968L159.931 28.4712C159.577 28.487 159.223 28.4827 158.869 28.4585C158.661 28.4477 158.459 28.437 158.262 28.437H158.262Z" fill="#F0F0F0"/>
<g id="oldphone">
<path id="Vector" d="M850.652 173.678L832.229 199.84C831.324 201.115 830.679 202.556 830.331 204.08C829.984 205.605 829.941 207.183 830.205 208.725L830.218 208.803C830.482 210.357 831.051 211.842 831.893 213.174C832.735 214.506 833.833 215.657 835.122 216.562C841.043 220.735 848.351 222.45 855.51 221.348C862.669 220.245 869.122 216.41 873.513 210.648C873.73 210.369 873.935 210.081 874.141 209.793C875.27 208.2 876.225 206.491 876.99 204.694C879.117 199.775 879.77 194.344 878.871 189.061L878.843 188.893C878.224 185.267 876.893 181.799 874.926 178.691C872.96 175.582 870.396 172.895 867.384 170.783C864.779 168.953 861.556 168.229 858.419 168.772C855.283 169.315 852.489 171.079 850.652 173.678V173.678ZM866.227 172.416C871.124 175.885 874.675 180.935 876.283 186.716C877.891 192.498 877.457 198.657 875.055 204.156C874.353 205.731 873.5 207.235 872.509 208.646C868.538 214.283 862.49 218.112 855.695 219.291C848.901 220.469 841.917 218.9 836.279 214.929C835.202 214.175 834.285 213.214 833.583 212.103C832.88 210.991 832.406 209.751 832.187 208.454L832.177 208.395C831.958 207.112 831.994 205.798 832.283 204.528C832.572 203.259 833.109 202.059 833.862 200.997L852.295 174.834C853.823 172.667 856.148 171.196 858.76 170.743C861.373 170.29 864.058 170.891 866.227 172.416V172.416Z" fill="#3F3D56"/>
<path id="Vector_2" d="M790.184 259.519L771.751 285.682C769.927 288.259 769.199 291.454 769.727 294.567L769.738 294.636C770.004 296.191 770.576 297.678 771.419 299.011C772.263 300.344 773.363 301.497 774.654 302.403C779.564 305.85 785.448 307.635 791.446 307.494C797.443 307.354 803.238 305.296 807.981 301.623L807.989 301.612C809.927 300.099 811.655 298.335 813.125 296.364C813.311 296.141 813.492 295.887 813.672 295.634C817.931 289.622 819.632 282.166 818.402 274.902L818.373 274.724C817.752 271.098 816.418 267.631 814.45 264.523C812.481 261.415 809.917 258.727 806.904 256.616C805.615 255.709 804.161 255.064 802.623 254.719C801.086 254.374 799.495 254.335 797.942 254.605C796.39 254.874 794.905 255.447 793.574 256.29C792.243 257.134 791.091 258.231 790.184 259.519L790.184 259.519ZM805.758 258.257C808.554 260.217 810.934 262.711 812.761 265.596C814.588 268.48 815.825 271.698 816.402 275.064L816.43 275.231C817.272 280.289 816.6 285.484 814.499 290.161C812.397 294.838 808.959 298.789 804.618 301.518C800.276 304.246 795.225 305.63 790.099 305.495C784.973 305.36 780.002 303.713 775.81 300.76C773.643 299.232 772.172 296.906 771.719 294.294C771.266 291.682 771.867 288.997 773.392 286.828L791.815 260.666C793.347 258.501 795.675 257.031 798.289 256.579C800.902 256.128 803.589 256.731 805.758 258.257L805.758 258.257Z" fill="#3F3D56"/>
<path id="Vector_3" d="M857.383 171.079L837.063 199.923C835.734 201.813 835.209 204.154 835.604 206.431C835.999 208.708 837.281 210.736 839.168 212.069C841.53 213.737 844.197 214.923 847.017 215.559C849.838 216.195 852.756 216.269 855.605 215.777C858.454 215.285 861.178 214.236 863.621 212.69C866.064 211.144 868.179 209.132 869.844 206.769C871.509 204.405 872.692 201.737 873.325 198.916C873.958 196.095 874.029 193.177 873.533 190.328C873.038 187.48 871.986 184.757 870.438 182.316C868.889 179.874 866.875 177.762 864.509 176.099L857.383 171.079Z" fill="#6C63FF"/>
<path id="Vector_4" d="M796.91 256.916L776.59 285.76C775.261 287.651 774.736 289.991 775.131 292.269C775.526 294.546 776.808 296.573 778.695 297.906C781.057 299.574 783.724 300.76 786.545 301.396C789.365 302.032 792.283 302.107 795.132 301.614C797.981 301.122 800.705 300.073 803.148 298.527C805.591 296.982 807.706 294.97 809.371 292.606C811.036 290.243 812.219 287.574 812.852 284.753C813.485 281.932 813.556 279.014 813.061 276.166C812.565 273.317 811.513 270.594 809.965 268.153C808.416 265.711 806.402 263.599 804.036 261.936L796.91 256.916Z" fill="#6C63FF"/>
<path id="Vector_5" d="M877.158 195.744L878.815 196.076C878.224 199.034 877.616 201.906 876.99 204.694C865.842 254.085 847.443 279.847 807.989 301.612L807.981 301.623C806.125 302.653 804.22 303.671 802.266 304.676L801.503 303.202C803.401 302.349 805.189 301.268 806.825 299.981C808.988 298.789 811.088 297.583 813.125 296.364C846.188 276.579 862.991 252.736 873.513 210.648C874.042 208.532 874.555 206.368 875.055 204.156C876.22 201.489 876.931 198.646 877.158 195.744V195.744Z" fill="#3F3D56"/>
<path id="Vector_6" d="M817.161 278.523L818.797 279.675L860.84 219.998L859.205 218.846L817.161 278.523Z" fill="#3F3D56"/>
</g>
<g id="cellphone">
<path id="bcf9023f-ac5b-481c-aaa4-352627f2cc6c" d="M128.367 46.4549L127.295 46.7112L120.258 17.2863C119.178 12.7697 116.352 8.86614 112.402 6.43446C108.451 4.00277 103.7 3.24211 99.1937 4.31981L36.9919 19.1948C32.4854 20.2725 28.5925 23.1003 26.1696 27.056C23.7468 31.0118 22.9924 35.7715 24.0725 40.2882L62.6765 201.716C63.7566 206.233 66.5827 210.136 70.5331 212.568C74.4834 215 79.2345 215.76 83.741 214.683L145.943 199.808C150.449 198.73 154.342 195.902 156.765 191.947C159.188 187.991 159.942 183.231 158.862 178.714L132.303 67.6565L133.375 67.4001L128.367 46.4549Z" fill="#3F3D56"/>
<path id="f7950315-d447-41b3-b140-1076b53a001f" d="M101.52 7.87625L93.343 9.83173C93.9388 10.6598 94.3207 11.6216 94.4551 12.6323C94.5894 13.6429 94.4721 14.6715 94.1135 15.6273C93.7549 16.5832 93.166 17.4369 92.3986 18.1133C91.6313 18.7898 90.7091 19.2681 89.7133 19.5062L53.8255 28.0885C52.8298 28.3265 51.791 28.317 50.8008 28.0609C49.8106 27.8048 48.8993 27.31 48.1471 26.6199C47.3949 25.9298 46.8251 25.0657 46.4876 24.1038C46.1502 23.1418 46.0555 22.1115 46.212 21.1035L38.5734 22.9302C35.1839 23.7408 32.2539 25.8589 30.4279 28.8185C28.6019 31.7781 28.0295 35.3369 28.8366 38.7119V38.7119L67.4059 199.995C68.213 203.37 70.3335 206.285 73.3009 208.098C76.2683 209.911 79.8396 210.475 83.2291 209.664L146.174 194.612C149.563 193.801 152.493 191.683 154.319 188.723C156.145 185.764 156.717 182.205 155.91 178.83L155.91 178.83L117.341 17.5461C116.534 14.1711 114.413 11.2563 111.446 9.44297C108.478 7.62963 104.907 7.06628 101.518 7.87684V7.87684L101.52 7.87625Z" fill="white"/>
<path id="f890d8c3-e731-49cb-a2e5-5c59e9f60352" d="M116.539 180.554C116.247 176.599 112.803 173.63 108.848 173.923C104.894 174.216 101.925 177.659 102.217 181.614C102.51 185.569 105.953 188.538 109.908 188.245C113.863 187.952 116.832 184.509 116.539 180.554Z" fill="#E6E6E6"/>
<g id="a1a6c59b-3717-4dad-b370-97c9e621082a">
<path id="aadecade-068c-4f25-a9ef-29b7b9ecc005" d="M128.527 90.9525L51.307 109.419L54.9529 124.665L132.173 106.199L128.527 90.9525Z" fill="#E6E6E6"/>
<path id="be47b05f-620a-4a83-9c0d-c2bf8bc76fef" d="M56.2055 122.625L130.134 104.946L127.275 92.9935L53.3472 110.673L56.2055 122.625Z" fill="white"/>
<path id="a28d2100-c4d0-4925-85de-1e7d52571659" d="M60.1352 110.448C61.0359 110.232 61.9802 110.289 62.8488 110.61C63.7174 110.932 64.4712 111.503 65.0149 112.253C65.5586 113.003 65.8678 113.897 65.9033 114.822C65.9388 115.748 65.6992 116.663 65.2146 117.452C64.73 118.241 64.0222 118.869 63.1808 119.256C62.3395 119.643 61.4022 119.772 60.4876 119.626C59.573 119.481 58.7222 119.067 58.0427 118.438C57.3632 117.808 56.8855 116.992 56.6701 116.091C56.5271 115.493 56.5033 114.873 56.6 114.265C56.6968 113.658 56.9121 113.076 57.2339 112.552C57.5557 112.028 57.9775 111.572 58.4753 111.211C58.9731 110.85 59.5371 110.591 60.1352 110.448Z" fill="#6C63FF"/>
<path id="bf3352be-1ca2-4e23-bbaf-f2f5ef64af93" d="M116.634 99.8671L71.6882 110.616L71.925 111.606L116.871 100.857L116.634 99.8671Z" fill="#E6E6E6"/>
<path id="bb396d43-890f-415a-a911-0c113deb0c88" d="M117.25 102.441L72.3037 113.19L72.5405 114.18L117.487 103.431L117.25 102.441Z" fill="#E6E6E6"/>
</g>
<g id="a76a8676-f787-4aac-bc26-4d28e625d812">
<path id="a3fed62c-a480-4fda-a6ab-9c7719a11d03" d="M133.73 112.709L56.5099 131.176L60.1558 146.422L137.376 127.955L133.73 112.709Z" fill="#E6E6E6"/>
<path id="b2013604-1388-480a-bf39-bc8d6d6f2c30" d="M61.4084 144.382L135.336 126.703L132.478 114.75L58.55 132.429L61.4084 144.382Z" fill="white"/>
<path id="a10785fe-0480-48e0-a209-79d56eb9fb83" d="M67.5162 141.313C70.0314 140.711 71.5827 138.185 70.9812 135.669C70.3798 133.154 67.8532 131.603 65.338 132.204C62.8229 132.806 61.2715 135.332 61.873 137.848C62.4745 140.363 65.001 141.914 67.5162 141.313Z" fill="#6C63FF"/>
<path id="e4ba10f0-0456-4e2c-9d9e-10f625ff54d2" d="M121.837 121.624L76.8911 132.372L77.1279 133.362L122.074 122.614L121.837 121.624Z" fill="#E6E6E6"/>
<path id="a086a789-ddcc-4a0c-b196-f7973999ed5b" d="M122.453 124.198L77.5066 134.946L77.7434 135.936L122.689 125.188L122.453 124.198Z" fill="#E6E6E6"/>
</g>
<g id="a5a5e7c6-2328-4bbd-a0bc-78368cb001e7">
<path id="be3c08ee-83a5-46f6-b550-c65a1a75b35b" d="M138.933 134.466L61.7128 152.932L65.3587 168.178L142.579 149.712L138.933 134.466Z" fill="#E6E6E6"/>
<path id="beee7471-5a7b-446e-b565-9b3273ba023a" d="M66.6113 166.138L140.539 148.459L137.681 136.507L63.7529 154.186L66.6113 166.138Z" fill="white"/>
<path id="f8684faf-2b28-4db0-a7a9-e69102a88591" d="M72.7191 163.069C75.2342 162.468 76.7856 159.941 76.1841 157.426C75.5826 154.911 73.0561 153.359 70.5409 153.961C68.0258 154.562 66.4744 157.089 67.0759 159.604C67.6774 162.119 70.2039 163.671 72.7191 163.069Z" fill="#6C63FF"/>
<path id="e7cf9a62-74c8-4968-991d-f63bde6d8d74" d="M127.04 143.38L82.094 154.129L82.3308 155.119L127.277 144.37L127.04 143.38Z" fill="#E6E6E6"/>
<path id="b57b1a7e-a030-4cfd-a852-c296d4f42a3d" d="M127.656 145.954L82.7095 156.703L82.9462 157.693L127.892 146.944L127.656 145.954Z" fill="#E6E6E6"/>
</g>
<path id="Vector_7" d="M86.0726 84.5724C97.8896 81.7464 105.178 69.8759 102.352 58.0589C99.5265 46.2418 87.656 38.9531 75.8389 41.779C64.0219 44.6049 56.7331 56.4754 59.5591 68.2925C62.385 80.1096 74.2555 87.3983 86.0726 84.5724Z" fill="#6C63FF"/>
<path id="Vector_8" d="M90.0405 53.87L93.5002 68.3371C93.5327 68.4728 93.5391 68.6134 93.5191 68.7507C93.4991 68.8881 93.453 69.0195 93.3835 69.1376C93.3141 69.2556 93.2225 69.358 93.1142 69.4388C93.0059 69.5196 92.8828 69.5773 92.7521 69.6085L73.3458 74.2493C73.2151 74.2806 73.0793 74.2848 72.9461 74.2618C72.813 74.2388 72.685 74.1889 72.5697 74.115C72.4543 74.0412 72.3538 73.9448 72.2738 73.8313C72.1938 73.7179 72.1359 73.5896 72.1035 73.4539L68.6439 58.9869C68.615 58.8688 68.6071 58.7466 68.6208 58.6264C68.6381 58.4356 68.7057 58.2543 68.8164 58.1021C68.927 57.95 69.0764 57.8329 69.2482 57.7635C69.2948 57.7437 69.3428 57.7276 69.3919 57.7155L88.7982 53.0747C88.8475 53.0633 88.8975 53.0558 88.948 53.0525C89.1327 53.0366 89.3189 53.0734 89.4864 53.1591C89.6539 53.2447 89.7963 53.3758 89.8979 53.5382C89.9645 53.6392 90.0129 53.7517 90.0405 53.87V53.87Z" fill="white"/>
<path id="Vector_9" d="M89.9543 53.5096L81.4614 63.9739C81.3917 64.0614 81.2958 64.1226 81.1883 64.1483C81.0808 64.174 80.9676 64.1628 80.8659 64.1163L68.5577 58.6264C68.5753 58.4359 68.6436 58.2548 68.7551 58.1027C68.8665 57.9506 69.0169 57.8334 69.1898 57.7638L80.9115 62.9906L89.0003 53.0263C89.186 53.0101 89.3731 53.0466 89.5413 53.1318C89.7095 53.217 89.8524 53.3477 89.9543 53.5096V53.5096Z" fill="#6C63FF"/>
</g>
<g id="letter">
<path id="Vector_10" d="M582.306 253.261L582.253 253.291L558.904 283.164L526.958 324.038C526.833 324.197 526.678 324.329 526.501 324.427C526.324 324.525 526.13 324.587 525.929 324.61L472.946 330.3L434.489 334.429L434.43 334.434L434.376 334.463C433.883 334.735 433.518 335.192 433.361 335.735C433.205 336.277 433.269 336.861 433.541 337.357L478.162 418.645C478.435 419.141 478.893 419.509 479.434 419.669C479.976 419.828 480.558 419.765 481.052 419.495L628.982 338.293C629.475 338.021 629.84 337.564 629.997 337.022C630.153 336.479 630.088 335.895 629.816 335.399L585.196 254.111C584.923 253.615 584.465 253.247 583.923 253.088C583.382 252.928 582.8 252.991 582.306 253.261V253.261Z" fill="white"/>
<path id="Vector_11" d="M583.505 253.744C583.45 253.774 583.388 253.786 583.326 253.78L480.877 242.645C480.566 242.612 480.252 242.675 479.978 242.826C479.705 242.977 479.484 243.208 479.345 243.489L434.266 335.601C434.23 335.674 434.167 335.729 434.09 335.755C434.013 335.781 433.93 335.775 433.857 335.739C433.784 335.703 433.729 335.64 433.702 335.563C433.676 335.487 433.681 335.403 433.716 335.33L478.796 243.218C478.99 242.824 479.299 242.5 479.683 242.289C480.066 242.078 480.505 241.989 480.941 242.036L583.389 253.17C583.454 253.177 583.515 253.205 583.563 253.249C583.611 253.293 583.644 253.351 583.657 253.415C583.67 253.479 583.662 253.546 583.635 253.605C583.607 253.664 583.562 253.713 583.505 253.744L583.505 253.744Z" fill="#3F3D56"/>
<path id="Vector_12" d="M439.134 335.077L481.127 244.918L582.283 261.274L536.718 337.604L495.709 349.402L439.134 335.077Z" fill="#E6E6E6"/>
<path id="Vector_13" d="M510.036 350.537L475.567 369.458C475.14 369.693 474.654 369.78 474.217 369.699C473.779 369.619 473.425 369.378 473.233 369.03C473.041 368.682 473.027 368.254 473.193 367.842C473.359 367.429 473.692 367.065 474.118 366.83L508.592 347.907C509.019 347.672 509.505 347.585 509.942 347.665C510.38 347.746 510.734 347.986 510.926 348.335C511.118 348.683 511.132 349.111 510.966 349.523C510.8 349.936 510.467 350.299 510.041 350.534L510.036 350.537Z" fill="#6C63FF"/>
<path id="Vector_14" d="M484.25 355.565L471.735 362.435C471.304 362.672 470.813 362.762 470.372 362.683C469.931 362.605 469.576 362.365 469.384 362.017C469.192 361.669 469.179 361.241 469.348 360.826C469.518 360.412 469.855 360.046 470.287 359.808L482.807 352.935C483.021 352.817 483.251 352.735 483.485 352.692C483.719 352.649 483.952 352.647 484.171 352.685C484.39 352.724 484.59 352.803 484.759 352.917C484.929 353.032 485.066 353.179 485.161 353.352C485.256 353.524 485.308 353.718 485.314 353.923C485.32 354.127 485.28 354.338 485.196 354.544C485.111 354.749 484.985 354.945 484.824 355.119C484.662 355.294 484.469 355.445 484.255 355.562L484.25 355.565Z" fill="#6C63FF"/>
<path id="Vector_15" d="M526.323 325.059C526.059 325.204 525.77 325.296 525.472 325.33L472.322 331.114L441.438 274.851C441.165 274.353 441.101 273.767 441.26 273.222C441.418 272.678 441.786 272.218 442.283 271.945L525.318 226.365C525.815 226.093 526.4 226.029 526.945 226.188C527.489 226.347 527.949 226.715 528.223 227.212L559.129 283.515L559.066 283.595L527.027 324.465C526.834 324.708 526.595 324.91 526.323 325.059V325.059Z" fill="white"/>
<path id="Vector_16" d="M526.321 325.06C526.041 325.214 525.734 325.312 525.416 325.348L472.333 331.133L441.508 274.978C441.217 274.446 441.148 273.821 441.317 273.239C441.487 272.657 441.88 272.167 442.41 271.875L525.19 226.435C525.721 226.144 526.346 226.076 526.928 226.246C527.509 226.415 528 226.809 528.292 227.339L559.138 283.533L527.07 324.428C526.865 324.687 526.61 324.901 526.321 325.06V325.06ZM472.671 330.483L525.349 324.743C525.838 324.685 526.285 324.437 526.591 324.051L558.411 283.474L527.758 227.633C527.544 227.243 527.184 226.955 526.758 226.831C526.331 226.706 525.873 226.756 525.483 226.969L442.704 272.409C442.315 272.623 442.026 272.983 441.902 273.41C441.778 273.836 441.828 274.295 442.042 274.684L472.671 330.483Z" fill="#3F3D56"/>
<path id="Vector_17" d="M582.295 253.267L582.241 253.297L558.716 283.267L526.529 324.274C526.403 324.433 526.246 324.566 526.069 324.664C525.891 324.763 525.696 324.826 525.494 324.849L472.262 330.676L433.624 334.904L433.564 334.909L433.51 334.938C433.014 335.212 432.646 335.67 432.488 336.214C432.329 336.758 432.393 337.342 432.665 337.838L477.285 419.126C477.558 419.622 478.017 419.99 478.561 420.148C479.105 420.306 479.689 420.242 480.186 419.97L628.971 338.299C629.467 338.026 629.835 337.567 629.993 337.023C630.152 336.48 630.088 335.895 629.816 335.399L585.196 254.111C584.923 253.615 584.464 253.247 583.92 253.089C583.376 252.931 582.792 252.995 582.295 253.267V253.267ZM629.281 335.693C629.476 336.047 629.521 336.465 629.408 336.853C629.295 337.242 629.032 337.569 628.677 337.764L479.893 419.435C479.538 419.63 479.12 419.676 478.732 419.563C478.343 419.45 478.015 419.187 477.821 418.833L433.2 337.545C433.011 337.199 432.962 336.793 433.066 336.412C433.169 336.031 433.415 335.705 433.753 335.501L472.579 331.253L525.559 325.457C526.131 325.39 526.653 325.1 527.011 324.65L559.035 283.848L582.642 253.773C582.995 253.598 583.402 253.566 583.778 253.684C584.154 253.802 584.47 254.06 584.66 254.405L629.281 335.693Z" fill="#3F3D56"/>
<path id="Vector_18" d="M489.292 273.519L460.205 289.485C459.644 289.792 458.98 289.855 458.358 289.662C457.737 289.468 457.208 289.033 456.89 288.453C456.571 287.872 456.488 287.193 456.658 286.565C456.829 285.936 457.239 285.41 457.799 285.102L486.886 269.135C487.447 268.829 488.111 268.765 488.732 268.958C489.354 269.152 489.882 269.587 490.201 270.167C490.52 270.748 490.603 271.427 490.433 272.056C490.262 272.684 489.852 273.21 489.292 273.519V273.519Z" fill="#6C63FF"/>
<path id="Vector_19" d="M469.555 272.945L455.415 280.707C454.849 281.017 454.179 281.084 453.554 280.893C452.928 280.702 452.397 280.268 452.078 279.687C451.759 279.105 451.678 278.425 451.852 277.794C452.027 277.163 452.443 276.634 453.009 276.324L467.149 268.562C467.715 268.251 468.385 268.184 469.011 268.375C469.637 268.566 470.168 269 470.487 269.582C470.806 270.163 470.887 270.844 470.712 271.474C470.537 272.105 470.121 272.634 469.555 272.945V272.945Z" fill="#6C63FF"/>
<path id="Vector_20" d="M528.873 279.17L484.045 303.776C483.479 304.086 482.836 304.199 482.256 304.089C481.676 303.98 481.206 303.658 480.951 303.193C480.696 302.729 480.676 302.16 480.896 301.612C481.115 301.064 481.555 300.581 482.121 300.27L526.948 275.663C527.514 275.353 528.158 275.241 528.738 275.35C529.318 275.459 529.787 275.782 530.042 276.246C530.297 276.711 530.317 277.28 530.098 277.828C529.879 278.376 529.438 278.859 528.873 279.17V279.17Z" fill="#CCCCCC"/>
<path id="Vector_21" d="M534.644 289.691L489.823 314.294C489.256 314.605 488.587 314.672 487.961 314.481C487.335 314.289 486.804 313.855 486.485 313.274C486.166 312.693 486.085 312.012 486.26 311.381C486.434 310.751 486.851 310.222 487.417 309.911L532.238 285.307C532.804 284.997 533.474 284.93 534.1 285.121C534.726 285.312 535.257 285.746 535.576 286.327C535.895 286.909 535.976 287.59 535.801 288.22C535.626 288.851 535.21 289.38 534.644 289.691V289.691Z" fill="#CCCCCC"/>
</g>
<g id="checkmark_letter">
<path id="Vector_22" d="M593.087 274.721C604.222 268.609 608.294 254.627 602.182 243.492C596.069 232.357 582.087 228.285 570.952 234.397C559.817 240.509 555.745 254.491 561.857 265.627C567.97 276.762 581.952 280.834 593.087 274.721Z" fill="#6C63FF"/>
<path id="Vector_23" d="M584.988 264.337L574.55 259.656L576.522 254.912L581.464 257.128L585.369 241.313L590.334 242.691L584.988 264.337Z" fill="white"/>
</g>
<g id="checkmark_cellphone">
<path id="Vector_24" d="M170.186 206.123C182.532 203.131 190.114 190.698 187.123 178.353C184.131 166.008 171.698 158.425 159.353 161.417C147.008 164.408 139.425 176.841 142.417 189.186C145.408 201.532 157.841 209.114 170.186 206.123Z" fill="#6C63FF"/>
<path id="Vector_25" d="M165.082 193.984L156.229 186.738L159.371 182.674L163.563 186.104L171.463 171.858L175.896 174.485L165.082 193.984Z" fill="white"/>
</g>
<g id="checkmark_oldphone">
<path id="Vector_26" d="M877.186 336.123C889.532 333.131 897.114 320.698 894.123 308.353C891.131 296.008 878.698 288.425 866.353 291.417C854.008 294.408 846.425 306.841 849.417 319.186C852.408 331.532 864.841 339.114 877.186 336.123Z" fill="#6C63FF"/>
<path id="Vector_27" d="M872.082 323.984L863.229 316.738L866.371 312.674L870.563 316.104L878.463 301.858L882.896 304.485L872.082 323.984Z" fill="white"/>
</g>
<g id="airplane_one">
<path id="Vector_28" d="M34.3613 326.394C33.992 326.462 33.6495 326.634 33.3731 326.888C33.0967 327.142 32.8975 327.47 32.7984 327.832C32.6993 328.194 32.7044 328.577 32.8129 328.937C32.9214 329.296 33.1291 329.618 33.4121 329.865L42.0214 337.38C42.1472 337.492 42.2501 337.627 42.3243 337.778C42.3931 337.931 42.4298 338.096 42.4323 338.263L42.6544 351.666C42.6536 352.105 42.8002 352.531 43.0707 352.876C43.3412 353.221 43.7198 353.464 44.1457 353.568L44.1612 353.572C44.5816 353.686 45.028 353.656 45.4292 353.486C45.8305 353.317 46.1635 353.018 46.3753 352.638L49.6859 346.935C49.7968 346.747 49.9567 346.593 50.1484 346.489C50.3402 346.385 50.5565 346.335 50.7744 346.345C50.9347 346.35 51.0923 346.388 51.2373 346.456C51.3822 346.525 51.5114 346.623 51.6167 346.744L66.4316 363.345C66.6453 363.586 66.9145 363.771 67.2158 363.885C67.5172 363.998 67.8417 364.037 68.1613 363.997C68.48 363.958 68.7844 363.842 69.0491 363.66C69.3137 363.479 69.5309 363.236 69.6822 362.953L93.0729 318.876C93.2497 318.544 93.3293 318.169 93.3025 317.794C93.2757 317.419 93.1435 317.059 92.9213 316.755C92.699 316.452 92.3957 316.218 92.0462 316.079C91.6966 315.941 91.315 315.903 90.9453 315.972L90.2195 316.105L34.3613 326.394L34.3613 326.394ZM33.935 329.264C33.7654 329.116 33.6412 328.922 33.5764 328.706C33.5117 328.49 33.5091 328.26 33.5689 328.043C33.6287 327.826 33.7485 327.629 33.9146 327.477C34.0808 327.324 34.2865 327.222 34.5082 327.181L90.3488 316.896L91.092 316.759C91.3134 316.719 91.5417 316.742 91.7506 316.825C91.9596 316.909 92.141 317.049 92.2741 317.23C92.4072 317.412 92.4866 317.627 92.5034 317.851C92.5202 318.076 92.4736 318.3 92.369 318.5L68.9783 362.577C68.8876 362.747 68.7572 362.893 68.598 363.002C68.4389 363.111 68.2558 363.18 68.0644 363.203C67.8729 363.226 67.6786 363.202 67.4982 363.134C67.3177 363.066 67.1564 362.956 67.0278 362.812L52.2131 346.211C52.0685 346.045 51.8963 345.905 51.7041 345.798L91.0367 318.702C91.1913 318.597 91.3046 318.442 91.357 318.264C91.4095 318.085 91.3977 317.893 91.3238 317.722C91.2499 317.551 91.1184 317.411 90.9522 317.326C90.786 317.241 90.5955 317.218 90.4136 317.259C90.369 317.268 90.3255 317.282 90.2837 317.3L42.8456 337.103C42.7576 336.984 42.6565 336.876 42.5443 336.78L33.935 329.264L33.935 329.264Z" fill="#F1F1F1"/>
<path id="Vector_29" d="M34.3613 326.394C33.992 326.462 33.6495 326.634 33.3731 326.888C33.0967 327.142 32.8975 327.47 32.7984 327.832C32.6993 328.194 32.7044 328.577 32.8129 328.937C32.9214 329.296 33.1291 329.618 33.4121 329.865L42.0214 337.38C42.1472 337.492 42.2501 337.627 42.3243 337.778C42.3931 337.931 42.4298 338.096 42.4323 338.263L42.6544 351.666C42.6536 352.105 42.8002 352.531 43.0707 352.876C43.3412 353.221 43.7198 353.464 44.1457 353.568L44.1612 353.572C44.5816 353.686 45.028 353.656 45.4292 353.486C45.8305 353.317 46.1635 353.018 46.3753 352.638L49.6859 346.935C49.7968 346.747 49.9567 346.593 50.1484 346.489C50.3402 346.385 50.5565 346.335 50.7744 346.345C50.9347 346.35 51.0923 346.388 51.2373 346.456C51.3822 346.525 51.5114 346.623 51.6167 346.744L66.4316 363.345C66.6453 363.586 66.9145 363.771 67.2158 363.885C67.5172 363.998 67.8417 364.037 68.1613 363.997C68.48 363.958 68.7844 363.842 69.0491 363.66C69.3137 363.479 69.5309 363.236 69.6822 362.953L93.0729 318.876C93.2497 318.544 93.3293 318.169 93.3025 317.794C93.2757 317.419 93.1435 317.059 92.9213 316.755C92.699 316.452 92.3957 316.218 92.0462 316.079C91.6966 315.941 91.315 315.903 90.9453 315.972L90.2195 316.105L34.3613 326.394L34.3613 326.394ZM33.935 329.264C33.7654 329.116 33.6412 328.922 33.5764 328.706C33.5117 328.49 33.5091 328.26 33.5689 328.043C33.6287 327.826 33.7485 327.629 33.9146 327.477C34.0808 327.324 34.2865 327.222 34.5082 327.181L90.3488 316.896L91.092 316.759C91.3134 316.719 91.5417 316.742 91.7506 316.825C91.9596 316.909 92.141 317.049 92.2741 317.23C92.4072 317.412 92.4866 317.627 92.5034 317.851C92.5202 318.076 92.4736 318.3 92.369 318.5L68.9783 362.577C68.8876 362.747 68.7571 362.893 68.598 363.002C68.4389 363.111 68.2558 363.18 68.0643 363.203C67.8729 363.226 67.6787 363.202 67.4982 363.134C67.3177 363.066 67.1564 362.956 67.0278 362.812L52.2131 346.211C52.0684 346.045 51.8962 345.905 51.7041 345.798C51.4291 345.642 51.1201 345.555 50.804 345.545C50.7595 345.542 50.714 345.543 50.6684 345.544L50.6646 345.543C50.3252 345.552 49.9939 345.648 49.7019 345.821C49.41 345.995 49.1673 346.24 48.9967 346.533L45.6851 352.24C45.5584 352.47 45.3579 352.649 45.1162 352.75C44.8745 352.851 44.6057 352.868 44.3535 352.797L44.3458 352.795C44.0895 352.735 43.8614 352.589 43.699 352.381C43.5366 352.174 43.4497 351.918 43.4524 351.654L43.2305 338.251C43.2296 338.109 43.2127 337.968 43.1803 337.83L43.1813 337.827C43.1506 337.694 43.106 337.566 43.048 337.443C42.9929 337.323 42.925 337.209 42.8456 337.103C42.7577 336.984 42.6566 336.876 42.5444 336.78L33.935 329.264L33.935 329.264Z" fill="#E5E5E5"/>
<path id="Vector_30" d="M42.8456 337.103L90.2837 317.3C90.3255 317.282 90.3691 317.268 90.4136 317.259C90.5955 317.218 90.786 317.242 90.9522 317.326C91.1184 317.411 91.2498 317.551 91.3237 317.722C91.3977 317.893 91.4095 318.085 91.357 318.264C91.3046 318.443 91.1913 318.598 91.0367 318.702L51.7041 345.798L51.01 346.277L50.5588 345.619L50.6646 345.543L50.6684 345.544L90.5816 318.043L43.1813 337.827L43.1803 337.83L42.9738 337.914L42.6661 337.177L42.8456 337.103Z" fill="#E5E5E5"/>
</g>
<g id="airplane_two">
<path id="Vector_31" d="M579.394 119.024C579.031 119.121 578.703 119.319 578.448 119.595C578.192 119.87 578.02 120.212 577.95 120.581C577.879 120.95 577.915 121.331 578.051 121.681C578.188 122.031 578.421 122.335 578.722 122.559L587.9 129.369C588.034 129.47 588.147 129.597 588.233 129.742C588.314 129.888 588.364 130.05 588.379 130.216L589.663 143.56C589.697 143.997 589.876 144.41 590.173 144.732C590.47 145.055 590.867 145.268 591.3 145.337L591.316 145.34C591.744 145.42 592.186 145.355 592.573 145.154C592.96 144.954 593.268 144.629 593.449 144.233L596.297 138.286C596.393 138.09 596.54 137.924 596.723 137.805C596.906 137.686 597.118 137.62 597.336 137.612C597.496 137.604 597.656 137.629 597.806 137.686C597.956 137.743 598.092 137.83 598.207 137.943L614.29 153.318C614.522 153.541 614.805 153.705 615.115 153.794C615.424 153.884 615.751 153.896 616.066 153.831C616.381 153.767 616.675 153.627 616.925 153.425C617.174 153.223 617.371 152.964 617.5 152.67L637.325 106.878C637.475 106.533 637.525 106.153 637.468 105.781C637.412 105.41 637.252 105.061 637.006 104.777C636.761 104.492 636.44 104.282 636.08 104.172C635.721 104.061 635.337 104.055 634.974 104.152L634.261 104.343L579.394 119.024V119.024ZM579.196 121.919C579.015 121.784 578.876 121.601 578.794 121.391C578.713 121.181 578.692 120.952 578.734 120.73C578.777 120.509 578.881 120.304 579.034 120.139C579.188 119.973 579.385 119.855 579.602 119.796L634.453 105.121L635.183 104.925C635.4 104.868 635.63 104.872 635.845 104.939C636.059 105.006 636.251 105.131 636.398 105.301C636.546 105.472 636.642 105.68 636.676 105.902C636.711 106.125 636.682 106.352 636.594 106.559L616.768 152.351C616.691 152.527 616.573 152.683 616.423 152.804C616.273 152.926 616.096 153.009 615.907 153.047C615.718 153.085 615.522 153.077 615.337 153.024C615.151 152.97 614.982 152.873 614.842 152.74L598.759 137.364C598.602 137.21 598.419 137.085 598.219 136.993L635.282 106.866C635.427 106.75 635.528 106.586 635.566 106.404C635.604 106.221 635.577 106.031 635.49 105.866C635.403 105.702 635.261 105.572 635.088 105.501C634.916 105.43 634.724 105.421 634.546 105.477C634.502 105.49 634.46 105.507 634.42 105.528L588.7 129.027C588.602 128.916 588.493 128.815 588.374 128.728L579.196 121.919V121.919Z" fill="#F1F1F1"/>
<path id="Vector_32" d="M579.394 119.024C579.031 119.121 578.703 119.319 578.448 119.595C578.192 119.87 578.02 120.212 577.95 120.581C577.879 120.95 577.915 121.331 578.051 121.681C578.188 122.031 578.421 122.335 578.722 122.559L587.9 129.369C588.034 129.47 588.147 129.597 588.233 129.742C588.314 129.888 588.364 130.05 588.379 130.216L589.663 143.56C589.697 143.997 589.876 144.41 590.173 144.732C590.47 145.055 590.867 145.268 591.3 145.337L591.316 145.34C591.744 145.42 592.186 145.355 592.573 145.154C592.96 144.954 593.268 144.629 593.449 144.233L596.297 138.286C596.393 138.09 596.54 137.924 596.723 137.805C596.906 137.686 597.118 137.62 597.336 137.612C597.496 137.604 597.656 137.629 597.806 137.686C597.956 137.743 598.092 137.83 598.207 137.943L614.29 153.318C614.522 153.541 614.805 153.705 615.115 153.794C615.424 153.884 615.751 153.896 616.066 153.831C616.381 153.767 616.675 153.627 616.925 153.425C617.174 153.223 617.371 152.964 617.5 152.67L637.325 106.878C637.475 106.533 637.525 106.153 637.468 105.781C637.412 105.41 637.252 105.061 637.006 104.777C636.761 104.492 636.44 104.282 636.08 104.172C635.721 104.061 635.337 104.055 634.974 104.152L634.261 104.343L579.394 119.024V119.024ZM579.196 121.919C579.015 121.784 578.876 121.601 578.794 121.391C578.713 121.181 578.692 120.952 578.734 120.73C578.777 120.509 578.881 120.304 579.034 120.139C579.188 119.973 579.385 119.855 579.602 119.796L634.453 105.121L635.183 104.925C635.4 104.868 635.63 104.872 635.845 104.939C636.059 105.006 636.251 105.131 636.398 105.301C636.546 105.472 636.642 105.68 636.676 105.902C636.711 106.125 636.682 106.352 636.594 106.559L616.768 152.351C616.691 152.527 616.573 152.683 616.423 152.804C616.273 152.926 616.096 153.009 615.907 153.047C615.718 153.085 615.522 153.077 615.337 153.024C615.151 152.97 614.982 152.873 614.842 152.74L598.759 137.364C598.602 137.21 598.419 137.085 598.219 136.993C597.932 136.859 597.618 136.797 597.302 136.812C597.257 136.813 597.212 136.817 597.166 136.821L597.163 136.821C596.825 136.857 596.502 136.979 596.225 137.175C595.948 137.371 595.725 137.634 595.578 137.94L592.729 143.892C592.621 144.13 592.435 144.325 592.203 144.445C591.97 144.565 591.703 144.603 591.446 144.552L591.438 144.551C591.178 144.511 590.939 144.383 590.761 144.19C590.582 143.996 590.475 143.747 590.457 143.484L589.174 130.141C589.162 130 589.134 129.86 589.091 129.726L589.091 129.722C589.05 129.592 588.996 129.467 588.928 129.349C588.864 129.234 588.787 129.126 588.7 129.027C588.602 128.916 588.493 128.815 588.374 128.728L579.196 121.919V121.919Z" fill="#E5E5E5"/>
<path id="Vector_33" d="M588.7 129.027L634.42 105.528C634.46 105.507 634.502 105.49 634.546 105.477C634.724 105.421 634.916 105.43 635.088 105.501C635.261 105.572 635.403 105.702 635.49 105.866C635.577 106.031 635.604 106.221 635.566 106.404C635.528 106.586 635.427 106.75 635.281 106.866L598.219 136.993L597.565 137.525L597.063 136.905L597.163 136.821L597.166 136.822L634.776 106.245L589.091 129.722L589.091 129.726L588.892 129.825L588.526 129.115L588.7 129.027Z" fill="#E5E5E5"/>
</g>
<g id="airplane_three">
<path id="Vector_34" d="M271.584 87.7413L223.132 58.1039L222.502 57.7191C222.181 57.5224 221.812 57.4202 221.436 57.4242C221.06 57.4282 220.693 57.5382 220.376 57.7416C220.06 57.945 219.808 58.2336 219.648 58.574C219.489 58.9145 219.428 59.2932 219.474 59.6663L225.501 109.2C225.54 109.519 225.656 109.823 225.838 110.088C226.02 110.352 226.263 110.569 226.546 110.721C226.83 110.872 227.147 110.953 227.469 110.955C227.791 110.957 228.109 110.88 228.394 110.732L248.178 100.549C248.319 100.474 248.475 100.429 248.635 100.416C248.795 100.404 248.956 100.426 249.107 100.479C249.314 100.548 249.498 100.672 249.64 100.838C249.781 101.003 249.875 101.204 249.912 101.419L250.957 107.93C251.018 108.362 251.222 108.76 251.535 109.062C251.849 109.364 252.255 109.552 252.688 109.597L252.704 109.599C253.139 109.655 253.58 109.563 253.956 109.338C254.332 109.113 254.622 108.768 254.778 108.358L259.793 95.9262C259.855 95.771 259.948 95.6303 260.067 95.5126C260.191 95.3983 260.335 95.309 260.493 95.2497L271.225 91.322C271.578 91.193 271.887 90.9671 272.117 90.6704C272.347 90.3736 272.489 90.0179 272.527 89.6442C272.564 89.2704 272.496 88.8937 272.329 88.5572C272.162 88.2206 271.904 87.9378 271.584 87.7413L271.584 87.7413ZM270.952 90.5736L260.22 94.5013C260.081 94.5508 259.948 94.6158 259.823 94.6951L222.643 59.1958C222.611 59.164 222.575 59.1355 222.537 59.1107C222.382 59.0072 222.195 58.9611 222.01 58.9804C221.824 58.9997 221.651 59.0833 221.521 59.2166C221.391 59.3499 221.311 59.5246 221.296 59.7104C221.28 59.8963 221.331 60.0816 221.438 60.2343L248.435 99.6346C248.218 99.6659 248.007 99.7346 247.812 99.8376L228.029 110.021C227.858 110.109 227.667 110.154 227.474 110.153C227.282 110.152 227.092 110.104 226.921 110.014C226.751 109.924 226.605 109.794 226.495 109.635C226.386 109.476 226.316 109.293 226.293 109.102L220.266 59.5678C220.24 59.3444 220.277 59.118 220.373 58.9146C220.47 58.7111 220.621 58.5388 220.81 58.4172C220.999 58.2956 221.219 58.2296 221.444 58.2267C221.669 58.2238 221.89 58.2843 222.083 58.401L222.727 58.7956L271.164 88.4232C271.357 88.541 271.512 88.7106 271.612 88.9125C271.713 89.1144 271.754 89.3406 271.732 89.565C271.71 89.7893 271.625 90.0029 271.487 90.1813C271.349 90.3597 271.164 90.4957 270.952 90.5736L270.952 90.5736Z" fill="#F1F1F1"/>
<path id="Vector_35" d="M271.584 87.7413L223.132 58.1039L222.502 57.7191C222.181 57.5224 221.812 57.4202 221.436 57.4242C221.06 57.4282 220.693 57.5382 220.376 57.7416C220.06 57.945 219.808 58.2336 219.648 58.574C219.489 58.9145 219.428 59.2932 219.474 59.6663L225.501 109.2C225.54 109.519 225.656 109.823 225.838 110.088C226.02 110.352 226.263 110.569 226.546 110.721C226.83 110.872 227.147 110.953 227.469 110.955C227.791 110.957 228.109 110.88 228.394 110.732L248.178 100.549C248.319 100.474 248.475 100.429 248.635 100.416C248.795 100.404 248.956 100.426 249.107 100.479C249.314 100.548 249.498 100.672 249.64 100.838C249.781 101.003 249.875 101.204 249.912 101.419L250.957 107.93C251.018 108.362 251.222 108.76 251.535 109.062C251.849 109.364 252.255 109.552 252.688 109.597L252.704 109.599C253.139 109.655 253.58 109.563 253.956 109.338C254.332 109.113 254.622 108.768 254.778 108.358L259.793 95.9262C259.855 95.771 259.948 95.6303 260.067 95.5126C260.191 95.3983 260.335 95.309 260.493 95.2497L271.225 91.322C271.578 91.193 271.887 90.9671 272.117 90.6704C272.347 90.3736 272.489 90.0179 272.527 89.6442C272.564 89.2704 272.496 88.8937 272.329 88.5572C272.162 88.2206 271.904 87.9378 271.584 87.7413L271.584 87.7413ZM270.952 90.5736L260.22 94.5013C260.081 94.5508 259.948 94.6158 259.823 94.6951C259.711 94.7653 259.607 94.8473 259.512 94.9397C259.414 95.0336 259.326 95.1376 259.25 95.2502L259.25 95.2541C259.17 95.3712 259.104 95.4968 259.052 95.6287L254.038 108.061C253.946 108.307 253.773 108.516 253.547 108.651C253.321 108.786 253.056 108.841 252.795 108.805L252.787 108.804C252.526 108.78 252.281 108.668 252.092 108.487C251.902 108.306 251.779 108.067 251.743 107.807L250.699 101.292C250.645 100.957 250.506 100.641 250.296 100.374C250.086 100.108 249.811 99.8995 249.497 99.7691L249.493 99.7687C249.451 99.7516 249.409 99.7345 249.366 99.7214C249.068 99.6171 248.748 99.5872 248.435 99.6344C248.217 99.6658 248.007 99.7345 247.812 99.8375L228.029 110.021C227.857 110.109 227.667 110.154 227.474 110.153C227.281 110.152 227.092 110.104 226.921 110.014C226.751 109.924 226.605 109.794 226.495 109.635C226.386 109.476 226.316 109.293 226.293 109.102L220.266 59.5678C220.24 59.3444 220.277 59.118 220.373 58.9146C220.47 58.7111 220.621 58.5388 220.81 58.4172C220.999 58.2955 221.219 58.2296 221.444 58.2267C221.669 58.2238 221.89 58.2843 222.083 58.401L222.727 58.7956L271.164 88.4232C271.357 88.541 271.512 88.7106 271.612 88.9125C271.713 89.1144 271.754 89.3405 271.732 89.5649C271.71 89.7892 271.625 90.0029 271.487 90.1813C271.349 90.3597 271.164 90.4957 270.952 90.5736L270.952 90.5736Z" fill="#E5E5E5"/>
<path id="Vector_36" d="M259.964 94.8286L259.412 95.4063L259.25 95.2542L259.25 95.2501L222.099 59.7824L249.493 99.7688L249.497 99.7692L249.569 99.8782L248.911 100.331L248.436 99.6345L221.438 60.2343C221.331 60.0816 221.28 59.8962 221.296 59.7104C221.311 59.5245 221.391 59.3499 221.521 59.2166C221.652 59.0833 221.824 58.9998 222.01 58.9804C222.195 58.9611 222.382 59.0072 222.537 59.1107C222.575 59.1355 222.611 59.164 222.643 59.1958L259.823 94.6951L259.964 94.8286Z" fill="#E5E5E5"/>
</g>
<g id="line_letter">
<path id="Vector_37" d="M88.5174 413.345C82.5556 407.738 78.2603 395.377 85.8275 385.589C89.5805 380.734 94.8828 379.128 99.66 378.81C106.268 378.371 112.535 380.224 118.132 382.838C124.587 385.853 130.397 390.059 136.141 394.293C141.812 398.473 147.533 402.559 153.447 406.349C176.598 421.163 201.874 432.355 228.403 439.539C234.952 441.31 241.59 442.829 248.318 444.097C254.635 445.409 261.037 446.267 267.476 446.666C276.081 447.039 290.637 446.595 296.063 434.262C298.94 427.723 297.923 420.728 296.06 415.237C293.807 408.599 290.073 403.027 286.403 397.593C269.334 372.316 252.138 347.164 235.005 321.951C231.006 316.066 226.928 310.24 223.361 303.943C220.022 298.046 216.982 291.646 215.664 284.339C214.513 277.957 214.561 270.241 218.271 263.57C221.348 258.038 226.42 254.659 231.423 252.783C243.811 248.136 256.606 250.407 267.448 253.81C280.918 258.038 293.323 264.686 306.759 268.997C317.608 272.479 330.03 274.644 342.43 270.786C347.604 269.286 352.256 266.37 355.86 262.366C359.469 258.083 361.66 252.786 362.129 247.205C362.732 240.84 361.474 234.839 359.635 229.493C357.494 223.407 354.435 217.684 350.564 212.522C342.472 201.544 332.495 192.746 323.497 182.83C319.083 177.967 314.715 172.886 311.439 166.834C308.663 161.706 306.031 155.388 306.68 148.432C308.02 134.08 323.504 133.377 331.576 134.291C337.019 134.994 342.394 136.152 347.644 137.752C348.763 138.073 349.409 135.841 348.295 135.521C342.776 133.824 337.113 132.635 331.377 131.971C326.47 131.493 321.155 131.47 315.985 133.557C313.638 134.492 311.515 135.911 309.752 137.721C307.99 139.53 306.627 141.69 305.753 144.06C303.583 150.13 304.898 156.404 306.63 161.365C308.921 167.926 312.614 173.385 316.647 178.381C320.893 183.643 325.531 188.454 330.185 193.229C339.486 202.771 349.496 212.195 355.563 225.164C359.808 234.235 364.113 249.292 355.187 260.329C351.225 265.229 345.772 267.8 340.672 269.109C334.74 270.538 328.599 270.878 322.546 270.114C295.319 267.152 274.107 247.521 245.731 248.098C236.083 248.294 223.015 251.056 216.565 262.947C213.214 269.123 212.66 276.135 213.329 282.269C214.131 289.616 216.767 296.141 219.835 302.057C223.134 308.158 226.792 314.058 230.79 319.726C235.085 326.055 239.383 332.38 243.684 338.701L269.773 377.093L282.735 396.167C286.691 401.989 290.851 407.769 293.587 414.673C295.827 420.326 297.623 428.595 293.432 435.431C290.103 440.859 284.217 442.914 279.368 443.799C273.089 444.946 266.928 444.565 260.997 443.814C254.155 442.948 247.418 441.663 240.768 440.189C227.146 437.166 213.786 433.067 200.813 427.932C187.868 422.817 175.339 416.707 163.337 409.658C157.273 406.095 151.351 402.292 145.57 398.247C139.612 394.076 133.903 389.504 127.798 385.567C122.277 382.005 116.388 378.998 109.886 377.482C104.457 376.216 98.2277 375.802 92.257 378.301C87.7939 380.259 84.2003 383.781 82.1524 388.204C80.107 392.617 79.4366 397.543 80.2284 402.342C81.0225 407.236 83.4117 411.73 87.0243 415.125C87.8759 415.926 89.3729 414.15 88.5175 413.345L88.5174 413.345Z" fill="#E6E6E6"/>
<path id="Vector_38" d="M397.011 117.313L356.539 114.033C354.75 113.89 352.978 114.462 351.611 115.624C350.244 116.786 349.394 118.443 349.247 120.231L346.904 149.14C346.761 150.928 347.333 152.7 348.495 154.067C349.657 155.434 351.314 156.285 353.102 156.432L393.574 159.712C395.363 159.855 397.135 159.283 398.502 158.121C399.869 156.958 400.719 155.302 400.866 153.513L403.209 124.605C403.352 122.816 402.78 121.044 401.618 119.677C400.456 118.31 398.799 117.46 397.011 117.313V117.313ZM396.698 121.167C396.94 121.188 397.178 121.239 397.407 121.319L375.105 136.331L355.638 117.899C355.833 117.875 356.03 117.871 356.226 117.887L396.698 121.167ZM393.887 155.858L353.415 152.577C352.648 152.514 351.938 152.15 351.44 151.564C350.942 150.978 350.697 150.219 350.758 149.452L353.08 120.803L373.571 140.204C373.89 140.506 374.303 140.69 374.74 140.726C375.178 140.763 375.616 140.649 375.98 140.404L399.323 124.691L397.012 153.201C396.949 153.967 396.584 154.677 395.998 155.175C395.413 155.673 394.653 155.919 393.887 155.858V155.858Z" fill="#E6E6E6"/>
</g>
</g>
<defs>
<clipPath id="clip0_2_101">
<rect width="894.249" height="448.282" fill="white"/>
</clipPath>
</defs>
</svg>
