<svg width="584" height="432" viewBox="0 0 584 432" fill="none" xmlns="http://www.w3.org/2000/svg">
<g id="undraw_react_re_g3ui 1">
<g id="react_logo">
<path id="Vector" d="M291.52 308.951C227.088 308.951 166.482 299.359 120.868 281.943C74.6457 264.295 49.1902 240.588 49.1902 215.188C49.1902 189.789 74.6458 166.083 120.868 148.434C166.482 131.018 227.088 121.427 291.52 121.427C355.953 121.427 416.558 131.018 462.173 148.434C508.394 166.083 533.85 189.79 533.85 215.188C533.85 240.587 508.394 264.295 462.173 281.943C416.558 299.359 355.953 308.951 291.52 308.951V308.951ZM291.52 125.427C227.563 125.427 167.465 134.925 122.295 152.171C77.7317 169.186 53.1902 191.566 53.1902 215.188C53.1902 238.81 77.7317 261.191 122.295 278.206C167.465 295.453 227.563 304.951 291.52 304.951C355.477 304.951 415.576 295.453 460.745 278.206C505.308 261.191 529.85 238.811 529.85 215.188C529.85 191.565 505.308 169.186 460.745 152.171C415.575 134.925 355.477 125.427 291.52 125.427V125.427Z" fill="#61DAFB"/>
<path id="Vector_2" d="M391.642 430.378C371.618 430.378 346.657 418.805 319.035 396.355C281.145 365.56 242.535 317.87 210.32 262.07C178.103 206.27 156.107 148.988 148.383 100.777C140.556 51.9228 148.359 18.0243 170.355 5.32512C192.351 -7.37361 225.611 2.8178 264.005 34.0224C301.895 64.8178 340.505 112.508 372.72 168.308C404.937 224.107 426.933 281.39 434.657 329.601C442.484 378.455 434.681 412.353 412.685 425.054C406.513 428.616 399.452 430.378 391.642 430.378V430.378ZM191.505 3.96917C184.365 3.96917 177.943 5.56292 172.355 8.78899C151.897 20.6005 144.786 53.0439 152.333 100.144C159.982 147.886 181.805 204.682 213.783 260.07C245.762 315.458 284.037 362.756 321.558 393.251C358.575 423.337 390.228 433.402 410.685 421.589C431.143 409.777 438.254 377.334 430.707 330.234C423.058 282.492 401.235 225.696 369.257 170.308C337.278 114.92 299.003 67.622 261.482 37.1269C234.576 15.2587 210.504 3.96917 191.505 3.96917Z" fill="#61DAFB"/>
<path id="Vector_3" d="M191.397 430.378C183.586 430.378 176.528 428.617 170.355 425.054C148.359 412.353 140.556 378.455 148.383 329.602C156.107 281.39 178.103 224.107 210.32 168.308C242.535 112.508 281.145 64.8178 319.035 34.0224C357.43 2.81731 390.69 -7.37507 412.685 5.32512C434.681 18.0243 442.484 51.9228 434.657 100.777C426.933 148.988 404.937 206.27 372.72 262.07C340.505 317.87 301.895 365.56 264.005 396.355C236.385 418.804 211.421 430.378 191.397 430.378V430.378ZM391.535 3.96917C372.536 3.96917 348.467 15.2573 321.558 37.1269C284.037 67.622 245.762 114.92 213.783 170.308C181.805 225.696 159.982 282.492 152.333 330.234C144.786 377.334 151.897 409.777 172.355 421.589C177.942 424.814 184.367 426.408 191.505 426.409C210.504 426.411 234.573 415.121 261.482 393.251C299.003 362.756 337.278 315.458 369.257 260.07C401.235 204.682 423.058 147.886 430.707 100.144C438.254 53.0439 431.143 20.6005 410.685 8.78899C405.098 5.56389 398.673 3.96917 391.535 3.96917V3.96917Z" fill="#61DAFB"/>
<path id="Vector_4" d="M291.52 259.978C316.256 259.978 336.309 239.925 336.309 215.189C336.309 190.453 316.256 170.4 291.52 170.4C266.784 170.4 246.731 190.453 246.731 215.189C246.731 239.925 266.784 259.978 291.52 259.978Z" fill="#61DAFB"/>
</g>
</g>
</svg>
